<?xml version="1.0" encoding="utf-8"?>
<!-- Generator: Adobe Illustrator 26.5.0, SVG Export Plug-In . SVG Version: 6.00 Build 0)  -->
<svg version="1.1" id="Layer_1" xmlns:svg="http://www.w3.org/2000/svg"
	 xmlns="http://www.w3.org/2000/svg" xmlns:xlink="http://www.w3.org/1999/xlink" x="0px" y="0px" viewBox="0 0 80.87 73.92"
	 style="enable-background:new 0 0 80.87 73.92;" xml:space="preserve">
<style type="text/css">
	.st0{fill:#85DA2F;}
	.st1{fill:#23C1FF;}
	.st2{fill:#FFCA11;}
	.st3{fill:#0069DA;}
	.st4{fill:#FF4649;}
</style>
<g id="Layer_x0020_1">
</g>
<path class="st0" d="M69.57,41.75c3.23-0.26,5.84,1.87,6.07,5.07c0.26,3.34-2.1,6.07-5.33,6.32c-3.09,0.26-5.84-2.1-6.07-5.22
	c-0.26-3.34,1.98-5.84,5.33-6.21V41.75z"/>
<path class="st1" d="M30.4,68.14c0-3.23,2.47-5.7,5.44-5.7s5.84,2.72,5.84,5.84c0,2.98-2.47,5.58-5.33,5.7
	C32.75,73.98,30.4,71.74,30.4,68.14z"/>
<path class="st2" d="M39.19,31.94c-0.51,0.26-0.74-0.11-0.88-0.48c-4.59-8.56-3.23-19.33,4.85-25.76c2.1-1.73,6.07-2.1,7.79-0.37
	c0.74,0.62,0.88,1.36,0.99,2.24c0.26,1.87,0.62,3.71,1.87,5.22c1.36,1.62,3.09,2.24,5.07,2.1c1.73,0,3.46-0.26,4.59,1.73
	c0.62,1.11,0.37,5.44-0.62,6.32c-0.48,0.37-0.88,0.11-1.25,0c-2.86-1.11-5.84-1.11-8.79-0.62c-0.99,0.11-1.47-0.11-1.47-1.25
	c-0.11-1.87-0.48-3.6-1.47-5.22c-1.87-3.34-5.33-3.46-7.57-0.37c-1.87,2.47-2.35,5.44-2.86,8.42C38.96,26.5,39.07,29.22,39.19,31.94
	C39.19,31.94,39.07,31.94,39.19,31.94z"/>
<path class="st0" d="M42.3,33.81c-0.26-0.37-0.11-0.74,0.26-0.99c7.06-6.43,17.6-7.68,25.76-1.36c2.1,1.73,3.46,5.33,2.35,7.43
	c-0.48,0.88-1.11,1.25-1.87,1.47c-1.73,0.74-3.34,1.47-4.45,3.09c-1.11,1.62-1.36,3.46-0.88,5.44c0.37,1.62,0.99,3.34-0.62,4.85
	c-0.88,0.88-5.07,1.62-6.21,0.88c-0.48-0.37-0.37-0.74-0.26-1.25c0.37-3.09-0.37-5.95-1.47-8.67c-0.37-0.99-0.26-1.47,0.74-1.73
	c1.73-0.51,3.34-1.36,4.59-2.61c2.72-2.61,2.1-5.95-1.47-7.43c-2.86-1.25-5.84-0.99-8.67-0.74C47.38,32.31,44.77,33.08,42.3,33.81z"
	/>
<path class="st1" d="M40.69,37.04c0.37-0.37,0.62-0.26,0.99,0c8.19,4.96,12.39,14.74,8.67,24.29c-0.99,2.47-4.22,4.96-6.58,4.34
	c-0.99-0.26-1.47-0.74-1.98-1.36c-1.11-1.47-2.35-2.86-4.22-3.46c-1.98-0.62-3.71-0.26-5.44,0.74c-1.47,0.88-2.98,1.98-4.85,0.88
	c-1.11-0.62-2.98-4.45-2.61-5.7c0.26-0.48,0.74-0.48,1.25-0.48c3.09-0.48,5.58-1.98,7.94-3.97c0.74-0.62,1.36-0.62,1.98,0.26
	c0.99,1.47,2.24,2.72,3.85,3.6c3.23,1.87,6.32,0.26,6.69-3.46c0.37-3.09-0.74-5.84-1.73-8.56c-1.11-2.47-2.47-4.85-3.97-7.06V37.04z
	"/>
<path class="st3" d="M36.72,37.78c-0.48,2.47-1.62,4.85-3.09,6.94c-4.45,6.69-10.91,9.41-18.85,8.67c-2.86-0.26-5.22-2.61-5.44-4.96
	c-0.11-0.99,0.11-1.73,0.74-2.47c0.88-1.11,1.62-2.1,1.98-3.46c0.74-2.72-0.26-4.96-2.24-6.94c-2.72-2.72-2.35-5.22,0.88-7.2
	c0.37-0.26,0.88-0.48,1.36-0.74c0.74-0.37,1.36-0.37,1.62,0.48c1.11,2.86,3.34,4.96,5.84,6.69c0.88,0.74,0.88,1.25,0.11,2.1
	c-1.47,1.62-2.35,3.6-2.47,5.84c-0.26,2.72,1.36,4.45,4.08,4.45c1.73,0,3.34-0.62,4.85-1.36c3.85-1.98,6.8-4.85,9.67-7.79
	c0.37-0.11,0.48-0.37,0.99-0.26H36.72z"/>
<path class="st4" d="M16.4,11.76c0.26,0,0.88,0.11,1.47,0.26c4.59,0.88,7.43-0.74,8.93-5.07c0.99-2.86,3.09-3.71,5.84-2.24
	c0.11,0,0.11,0.11,0.26,0.11c2.86,1.62,2.86,1.87,1.11,4.34c-1.47,1.98-2.24,4.22-2.61,6.58c-0.26,1.36-0.74,1.62-1.98,1.11
	c-1.98-0.74-4.08-0.74-6.21,0c-2.35,0.74-3.34,2.86-2.61,5.22c0.99,3.09,3.71,4.45,6.07,6.07c2.35,1.62,5.07,2.47,7.68,3.6
	c0.37,0.11,0.99,0.11,0.88,0.74c-0.11,0.37-0.62,0.37-1.11,0.37c-5.58,0.26-10.91-0.62-15.25-4.34c-4.08-3.34-7.06-7.43-6.58-13.15
	c0.37-1.87,1.73-3.23,4.08-3.6L16.4,11.76z"/>
<path class="st3" d="M6.22,46.57c-2.98,0.37-5.95-2.1-6.21-5.22c-0.26-2.98,2.24-5.95,5.07-6.21c3.23-0.37,6.21,1.87,6.43,4.85
	c0.11,2.86-1.73,6.32-5.33,6.58H6.22z"/>
<path class="st2" d="M58.29,2.47c3.09-0.26,6.07,2.24,6.32,5.33c0.26,2.98-2.24,5.84-5.22,6.07c-3.23,0.26-6.07-2.1-6.32-5.22
	c-0.26-3.09,1.98-5.95,5.22-6.21V2.47z"/>
<path class="st4" d="M25.92,4.82c0.37,3.23-1.87,5.95-5.22,6.43c-2.86,0.37-5.84-1.98-6.21-4.71c-0.37-3.6,1.62-6.21,4.96-6.58
	c3.09-0.37,6.07,1.98,6.43,4.85H25.92z"/>
</svg>
