<?xml version="1.0" encoding="utf-8"?>
<!-- Generator: Adobe Illustrator 26.5.0, SVG Export Plug-In . SVG Version: 6.00 Build 0)  -->
<svg version="1.1" id="Layer_1" xmlns="http://www.w3.org/2000/svg" xmlns:xlink="http://www.w3.org/1999/xlink" x="0px" y="0px"
	 viewBox="0 0 100 100" style="enable-background:new 0 0 100 100;" xml:space="preserve">
<style type="text/css">
	.st0{fill:#EB7726;}
</style>
<path class="st0" d="M20.75,88.56c0,0,2.2,5.26,6.33,10.23l0.16-0.35c-3.46-5.67-9.84-20.95,5.93-40.33c0,0-4.13,9.1,1.46,18.01
	c0,0-1.13-32.05,22.3-42.31c0,0-9.1,11.56,3.67,26.24c0,0,10.73,9.34,8.88,26.43c2.16-3.68,4.35-9.16,3.32-15.23
	c0,0,8.84,13.47,1.67,28.75h22.47L49.99,0.09L3.06,99.98h19.4C21.43,96.68,20.78,92.91,20.75,88.56z"/>
</svg>
