<?xml version="1.0" encoding="utf-8"?>
<!-- Generator: Adobe Illustrator 26.5.0, SVG Export Plug-In . SVG Version: 6.00 Build 0)  -->
<svg version="1.1" id="Layer_1" xmlns="http://www.w3.org/2000/svg" xmlns:xlink="http://www.w3.org/1999/xlink" x="0px" y="0px"
	 viewBox="0 0 100 100" style="enable-background:new 0 0 100 100;" xml:space="preserve">
<style type="text/css">
	.st0{fill:#C7DA48;}
	.st1{enable-background:new    ;}
	.st2{fill:#FFFFFF;}
</style>
<g>
	<polygon class="st0" points="92.47,74.52 92.47,25.48 49.98,0.94 7.53,25.48 7.53,74.52 49.98,99.06 	"/>
	<g class="st1">
		<path class="st2" d="M40.58,40.58c0-1.03-0.59-1.62-1.62-1.62h-7.38c-1.03,0-1.62,0.59-1.62,1.62v18.44
			c0,1.03,0.59,1.62,1.62,1.62h7.43c1.03,0,1.62-0.59,1.62-1.62v-4.18h6.84v5.51c0,3.98-2.75,6.74-6.74,6.74H29.86
			c-3.98,0-6.74-2.75-6.74-6.74V39.2c0-3.98,2.75-6.74,6.74-6.74h10.87c3.98,0,6.74,2.75,6.74,6.74v5.51h-6.89V40.58z"/>
		<path class="st2" d="M69.55,40.58c0-1.03-0.59-1.62-1.62-1.62h-6.84c-1.03,0-1.62,0.59-1.62,1.62v3.25c0,1.03,0.59,1.38,1.62,1.62
			l8.85,1.92c3.69,0.79,6.84,3.05,6.84,6.84v6.2c0,3.98-2.75,6.74-6.74,6.74H59.37c-3.98,0-6.74-2.75-6.74-6.74v-4.38h6.64v3.05
			c0,1.03,0.59,1.62,1.62,1.62h7.43c1.03,0,1.62-0.59,1.62-1.62v-3.64c0-1.03-0.59-1.38-1.62-1.62l-8.85-1.92
			c-3.69-0.79-6.84-3.05-6.84-6.84v-5.8c0-3.98,2.75-6.74,6.74-6.74h10.08c3.98,0,6.74,2.75,6.74,6.74v3.98h-6.64
			C69.55,43.24,69.55,40.58,69.55,40.58z"/>
	</g>
</g>
</svg>
