<?xml version="1.0" encoding="utf-8"?>
<!-- Generator: Adobe Illustrator 26.5.0, SVG Export Plug-In . SVG Version: 6.00 Build 0)  -->
<svg version="1.1" id="Layer_1" xmlns="http://www.w3.org/2000/svg" xmlns:xlink="http://www.w3.org/1999/xlink" x="0px" y="0px"
	 viewBox="0 0 100 100" style="enable-background:new 0 0 100 100;" xml:space="preserve">
<style type="text/css">
	.st0{fill:#75439A;}
	.st1{fill:#FFFFFF;}
</style>
<g>
	<polygon class="st0" points="93.28,74.99 93.28,25.01 49.97,0 6.72,25.01 6.72,74.99 49.97,100 	"/>
	<g>
		<path class="st1" d="M40.4,40.4c0-1.05-0.6-1.65-1.65-1.65h-7.52c-1.05,0-1.65,0.6-1.65,1.65v18.8c0,1.05,0.6,1.65,1.65,1.65h7.57
			c1.05,0,1.65-0.6,1.65-1.65v-4.26h6.97v5.61c0,4.06-2.81,6.87-6.87,6.87H29.47c-4.06,0-6.87-2.81-6.87-6.87V39
			c0-4.06,2.81-6.87,6.87-6.87h11.08c4.06,0,6.87,2.81,6.87,6.87v5.61H40.4V40.4z"/>
		<path class="st1" d="M71.38,32.13c4.06,0,6.87,2.81,6.87,6.87v21.55c0,4.06-2.81,6.87-6.87,6.87H59.7c-4.06,0-6.87-2.81-6.87-6.87
			V39c0-4.06,2.81-6.87,6.87-6.87C59.7,32.13,71.38,32.13,71.38,32.13z M71.28,40.4c0-1.05-0.6-1.65-1.65-1.65H61.4
			c-1.05,0-1.65,0.6-1.65,1.65v18.8c0,1.05,0.6,1.65,1.65,1.65h8.22c1.05,0,1.65-0.6,1.65-1.65V40.4z"/>
	</g>
</g>
</svg>
