<?xml version="1.0" encoding="utf-8"?>
<!-- Generator: Adobe Illustrator 25.4.0, SVG Export Plug-In . SVG Version: 6.00 Build 0)  -->
<svg version="1.1" id="Layer_1" xmlns="http://www.w3.org/2000/svg" xmlns:xlink="http://www.w3.org/1999/xlink" x="0px" y="0px"
	 viewBox="0 0 3000 1415.8" style="enable-background:new 0 0 3000 1415.8;" xml:space="preserve">
<style type="text/css">
	.st0{fill:#EE3338;}
	.st1{fill:#373535;}
</style>
<g>
	<polygon class="st0" points="1966.9,245.8 1966.9,538 1898.6,560.8 1898.6,223 1693.6,154.6 1693.6,632.9 1625.3,655.7 
		1625.3,128.1 1519,93.9 1416.5,128.1 1416.5,655.7 1348.2,632.9 1348.2,154.6 1143.2,223 1143.2,560.8 1074.9,538 1074.9,245.8 
		1006.5,268.5 1006.5,587.4 1211.5,655.7 1211.5,272.3 1279.8,245.8 1279.8,678.5 1484.8,750.6 1484.8,177.4 1519,166 1553.2,177.4 
		1553.2,750.6 1761.9,678.5 1761.9,245.8 1830.2,272.3 1830.2,655.7 2035.2,587.4 2035.2,268.5 	"/>
	<polygon class="st1" points="296.7,1130.2 418.2,1130.2 418.2,1099.8 296.7,1099.8 296.7,1027.7 478.9,1027.7 478.9,997.3 
		258.7,997.3 258.7,1244.1 486.5,1244.1 486.5,1209.9 296.7,1209.9 	"/>
	<path class="st1" d="M1260.9,1145.4c0,41.8-30.4,72.1-72.1,72.1c-45.6,0-72.1-30.3-72.1-72.1v-148h-34.2v148
		c0,68.3,49.4,106.3,106.3,106.3c83.5,0,110.1-56.9,110.1-106.3v-148h-38V1145.4z"/>
	<rect x="1503.8" y="997.3" class="st1" width="34.2" height="246.7"/>
	<polygon class="st1" points="1970.7,1190.9 1792.3,997.3 1758.1,997.3 1758.1,1244.1 1792.3,1244.1 1792.3,1046.7 1974.5,1244.1 
		2008.6,1244.1 2008.6,997.3 1970.7,997.3 	"/>
	<rect x="2228.8" y="997.3" class="st1" width="38" height="246.7"/>
	<polygon class="st1" points="2619.8,1107.4 2722.3,997.3 2680.5,997.3 2597,1084.6 2513.5,997.3 2468,997.3 2566.6,1111.2 
		2441.4,1244.1 2486.9,1244.1 2593.2,1134 2691.9,1244.1 2741.3,1244.1 	"/>
	<path class="st1" d="M763.6,986c-75.9,0-136.6,56.9-136.6,132.9v3.8c0,75.9,60.7,129.1,136.6,129.1c19,0,41.8-3.8,56.9-15.2
		l22.8,26.6h41.8l-38-41.7c30.4-22.8,49.3-57,49.3-102.5C896.5,1039.1,835.7,986,763.6,986z M858.5,1118.8
		c0,34.2-11.4,56.9-30.4,75.9l-22.8-19h-41.8l34.2,38c-7.6,3.8-22.8,7.6-34.2,7.6c-53.1,0-98.7-41.8-98.7-102.5
		c0-57,41.8-98.7,94.9-102.5C816.7,1016.3,858.5,1061.9,858.5,1118.8z"/>
	<path class="st0" d="M2168.1,564.6c34.2,0,60.7-26.6,60.7-60.7c0-34.2-26.6-60.7-60.7-60.7c-34.2,0-60.7,26.6-60.7,60.7
		C2107.3,538,2133.9,564.6,2168.1,564.6z M2168.1,557c-30.4,0-56.9-22.8-56.9-53.1c0-30.4,26.6-53.1,56.9-53.1
		c30.4,0,53.1,22.8,53.1,53.1C2221.2,534.2,2198.4,557,2168.1,557z M2141.5,534.2h15.2v-19h11.4l11.4,19h19l-15.2-22.8
		c7.6-3.8,15.2-7.6,15.2-19c0-15.2-11.4-22.8-26.6-22.8h-30.4V534.2z M2156.7,503.9v-19h15.2c7.6,0,11.4,3.8,11.4,7.6
		c0,7.6-3.8,11.4-11.4,11.4H2156.7z"/>
</g>
</svg>
