<?xml version="1.0" encoding="utf-8"?>
<!-- Generator: Adobe Illustrator 26.5.0, SVG Export Plug-In . SVG Version: 6.00 Build 0)  -->
<svg version="1.1" id="Layer_1" xmlns="http://www.w3.org/2000/svg" xmlns:xlink="http://www.w3.org/1999/xlink" x="0px" y="0px"
	 viewBox="0 0 1178.66 811.98" style="enable-background:new 0 0 1178.66 811.98;" xml:space="preserve">
<style type="text/css">
	.st0{fill:#EE3338;}
</style>
<polygon class="st0" points="1034.92,226.8 1034.92,519 966.62,541.8 966.62,204 761.62,135.6 761.62,613.9 693.32,636.7 
	693.32,109.1 587.02,74.9 484.52,109.1 484.52,636.7 416.22,613.9 416.22,135.6 211.22,204 211.22,541.8 142.92,519 142.92,226.8 
	74.52,249.5 74.52,568.4 279.52,636.7 279.52,253.3 347.82,226.8 347.82,659.5 552.82,731.6 552.82,158.4 587.02,147 621.22,158.4 
	621.22,731.6 829.92,659.5 829.92,226.8 898.22,253.3 898.22,636.7 1103.22,568.4 1103.22,249.5 "/>
</svg>
