<?xml version="1.0" encoding="utf-8"?>
<!-- Generator: Adobe Illustrator 26.5.0, SVG Export Plug-In . SVG Version: 6.00 Build 0)  -->
<svg version="1.1" id="Layer_1" xmlns="http://www.w3.org/2000/svg" xmlns:xlink="http://www.w3.org/1999/xlink" x="0px" y="0px"
	 viewBox="0 0 100 100" style="enable-background:new 0 0 100 100;" xml:space="preserve">
<style type="text/css">
	.st0{fill:#1C6AB4;}
	.st1{fill:#77BDE8;}
	.st2{fill:#D8D9D8;}
</style>
<path class="st0" d="M85.16,88.87H15.52c-2.03,0-3.71-1.69-3.71-3.71V15.52c0-2.03,1.69-3.71,3.71-3.71h69.64
	c2.03,0,3.71,1.69,3.71,3.71v69.64C88.87,87.18,87.18,88.87,85.16,88.87z"/>
<path class="st1" d="M74.61,76.8H26.07c-1.18,0-2.19-1.01-2.19-2.19V26.07c0-1.18,1.01-2.19,2.19-2.19h48.54
	c1.18,0,2.19,1.01,2.19,2.19v48.54C76.8,75.87,75.87,76.8,74.61,76.8z"/>
<g>
	<path class="st2" d="M27.08,18.39L27.08,18.39c-1.77,0-3.21-1.43-3.21-3.21V4.21c0-1.77,1.43-3.21,3.21-3.21l0,0
		c1.77,0,3.21,1.43,3.21,3.21v10.97C30.29,16.95,28.86,18.39,27.08,18.39z"/>
	<path class="st2" d="M42.61,18.39L42.61,18.39c-1.77,0-3.21-1.43-3.21-3.21V4.21c0-1.77,1.43-3.21,3.21-3.21l0,0
		c1.77,0,3.21,1.43,3.21,3.21v10.97C45.82,16.95,44.39,18.39,42.61,18.39z"/>
	<path class="st2" d="M58.06,18.39L58.06,18.39c-1.77,0-3.21-1.43-3.21-3.21V4.21c0-1.77,1.43-3.21,3.21-3.21l0,0
		c1.77,0,3.21,1.43,3.21,3.21v10.97C61.35,16.95,59.92,18.39,58.06,18.39z"/>
	<path class="st2" d="M73.59,18.39L73.59,18.39c-1.77,0-3.21-1.43-3.21-3.21V4.21c0-1.77,1.43-3.21,3.21-3.21l0,0
		c1.77,0,3.21,1.43,3.21,3.21v10.97C76.89,16.95,75.37,18.39,73.59,18.39z"/>
</g>
<g>
	<path class="st2" d="M27.08,99.76L27.08,99.76c-1.77,0-3.21-1.43-3.21-3.21V85.58c0-1.77,1.43-3.21,3.21-3.21l0,0
		c1.77,0,3.21,1.43,3.21,3.21v10.97C30.29,98.24,28.86,99.76,27.08,99.76z"/>
	<path class="st2" d="M42.61,99.76L42.61,99.76c-1.77,0-3.21-1.43-3.21-3.21V85.58c0-1.77,1.43-3.21,3.21-3.21l0,0
		c1.77,0,3.21,1.43,3.21,3.21v10.97C45.82,98.24,44.39,99.76,42.61,99.76z"/>
	<path class="st2" d="M58.06,99.76L58.06,99.76c-1.77,0-3.21-1.43-3.21-3.21V85.58c0-1.77,1.43-3.21,3.21-3.21l0,0
		c1.77,0,3.21,1.43,3.21,3.21v10.97C61.35,98.24,59.92,99.76,58.06,99.76z"/>
	<path class="st2" d="M73.59,99.76L73.59,99.76c-1.77,0-3.21-1.43-3.21-3.21V85.58c0-1.77,1.43-3.21,3.21-3.21l0,0
		c1.77,0,3.21,1.43,3.21,3.21v10.97C76.89,98.24,75.37,99.76,73.59,99.76z"/>
</g>
<g>
	<path class="st2" d="M82.29,27.08L82.29,27.08c0-1.77,1.43-3.21,3.21-3.21h10.97c1.77,0,3.21,1.43,3.21,3.21l0,0
		c0,1.77-1.43,3.21-3.21,3.21H85.5C83.72,30.29,82.29,28.86,82.29,27.08z"/>
	<path class="st2" d="M82.29,42.61L82.29,42.61c0-1.77,1.43-3.21,3.21-3.21h10.97c1.77,0,3.21,1.43,3.21,3.21l0,0
		c0,1.77-1.43,3.21-3.21,3.21H85.5C83.72,45.82,82.29,44.39,82.29,42.61z"/>
	<path class="st2" d="M82.29,58.06L82.29,58.06c0-1.77,1.43-3.21,3.21-3.21h10.97c1.77,0,3.21,1.43,3.21,3.21l0,0
		c0,1.77-1.43,3.21-3.21,3.21H85.5C83.72,61.35,82.29,59.92,82.29,58.06z"/>
	<path class="st2" d="M82.29,73.59L82.29,73.59c0-1.77,1.43-3.21,3.21-3.21h10.97c1.77,0,3.21,1.43,3.21,3.21l0,0
		c0,1.77-1.43,3.21-3.21,3.21H85.5C83.72,76.89,82.29,75.37,82.29,73.59z"/>
</g>
<g>
	<path class="st2" d="M1,27.08L1,27.08c0-1.77,1.43-3.21,3.21-3.21h10.97c1.77,0,3.21,1.43,3.21,3.21l0,0
		c0,1.77-1.43,3.21-3.21,3.21H4.21C2.43,30.29,1,28.86,1,27.08z"/>
	<path class="st2" d="M1,42.61L1,42.61c0-1.77,1.43-3.21,3.21-3.21h10.97c1.77,0,3.21,1.43,3.21,3.21l0,0
		c0,1.77-1.43,3.21-3.21,3.21H4.21C2.43,45.82,1,44.39,1,42.61z"/>
	<path class="st2" d="M1,58.06L1,58.06c0-1.77,1.43-3.21,3.21-3.21h10.97c1.77,0,3.21,1.43,3.21,3.21l0,0
		c0,1.77-1.43,3.21-3.21,3.21H4.21C2.43,61.35,1,59.92,1,58.06z"/>
	<path class="st2" d="M1,73.59L1,73.59c0-1.77,1.43-3.21,3.21-3.21h10.97c1.77,0,3.21,1.43,3.21,3.21l0,0
		c0,1.77-1.43,3.21-3.21,3.21H4.21C2.43,76.89,1,75.37,1,73.59z"/>
</g>
</svg>
