<?xml version="1.0" encoding="utf-8"?>
<!-- Generator: Adobe Illustrator 25.4.1, SVG Export Plug-In . SVG Version: 6.00 Build 0)  -->
<svg version="1.1" id="Layer_1" xmlns="http://www.w3.org/2000/svg" xmlns:xlink="http://www.w3.org/1999/xlink" x="0px" y="0px"
	 viewBox="0 0 383.8 62.6" style="enable-background:new 0 0 383.8 62.6;" xml:space="preserve">
<style type="text/css">
	.st0{fill:#0769BA;}
	.st1{fill:#00AB57;}
</style>
<g>
	<path class="st0" d="M4.9,27.1c0-4.4,1.3-8.4,3.6-11.8l-2.9-2.9c-3,4.1-4.8,9.2-4.8,14.7c0,10.9,7,20.2,16.7,23.7v-4.4
		C10.1,43.1,4.9,35.7,4.9,27.1z"/>
	<path class="st1" d="M33.8,7.5l3.1-3.1c-3.3-1.6-7-2.5-10.9-2.5c-5.4,0-10.3,1.7-14.4,4.6l2.9,2.9C17.8,7.2,21.7,6,26,6
		C28.7,6,31.4,6.5,33.8,7.5z"/>
	<path class="st0" d="M45.6,19.4c0.9,2.4,1.5,5,1.5,7.7c0,11.6-9.5,21.1-21.1,21.1v12C30.2,49.9,37.8,50,42.1,46.4
		c5.5-4.6,9-11.5,9-19.3c0-3.9-0.9-7.5-2.4-10.8L45.6,19.4z"/>
	<path class="st0" d="M46.5,12.6c-0.6-0.9-1.3-1.7-2-2.5c-1.2-1.3-2.5-2.5-3.9-3.5l-9.4,11.5c-1.5-0.9-3.3-1.4-5.1-1.4
		c-5.7,0-10.4,4.6-10.4,10.4S20.3,37.6,26,37.6S36.4,33,36.4,27.2c0-2-0.5-3.8-1.5-5.4L46.5,12.6z"/>
</g>
<path class="st0" d="M188.8,34.7h5.7c0.1,1.1,0.5,2,1.2,2.5c0.8,0.5,2,0.8,3.3,0.8c1,0,1.9-0.2,2.6-0.6c0.7-0.4,1-0.9,1-1.6
	c0-1-1.2-1.8-3.5-2.3c-1-0.1-1.8-0.3-2.3-0.5c-2.9-0.7-5-1.6-5.9-2.6c-1.1-1-1.7-2.4-1.7-4c0-2.1,0.8-3.9,2.4-5.3
	c1.7-1.3,3.9-2,6.5-2c2.9,0,5.2,0.7,7,2c1.6,1.4,2.5,3.2,2.6,5.4h-3.6c-1,0-1.9-0.5-2.4-1.4c-0.2-0.2-0.5-0.5-0.7-0.7
	c-0.7-0.5-1.6-0.7-2.7-0.7c-1.1,0-2,0.1-2.5,0.5c-0.5,0.3-0.7,0.8-0.7,1.5c0,0.9,1.4,1.6,4.4,2.3c0.3,0.1,0.7,0.2,0.8,0.3
	c0.3,0.1,0.5,0.1,0.7,0.1c2.9,0.7,4.8,1.6,5.9,2.5c1,1,1.6,2.4,1.6,4c0,2.5-0.9,4.4-2.7,5.7c-1.7,1.2-4.2,1.8-7.5,1.8
	c-3.2,0-5.6-0.7-7.1-2c-1.6-1.3-2.4-3.1-2.4-5.6L188.8,34.7L188.8,34.7z M174.7,42.1V31.2c0-2.2,0.3-4,1-5.5s1.5-2.7,2.6-3.5
	c1-0.8,2.3-1.4,3.7-1.8s2.9-0.6,4.4-0.6c0.1,0,0.3,0,0.4,0c0.2,0,0.3,0,0.4,0v5.9h-2c-1.6,0-2.8,0.4-3.6,1.2s-1.2,2-1.2,3.7v11.5
	L174.7,42.1L174.7,42.1z M157.6,28.6h8.6c-0.1-1.5-0.5-2.6-1.2-3.3c-0.7-0.8-1.8-1.2-3.1-1.2c-1.2,0-2.2,0.4-3,1.2
	S157.6,27.2,157.6,28.6z M167.7,35.2h4.2c-0.6,2.4-1.8,4.1-3.5,5.4c-1.8,1.3-3.9,2-6.5,2c-3.2,0-5.7-1-7.4-3.1
	c-1.8-2-2.7-4.9-2.7-8.6c0-3.6,0.8-6.4,2.6-8.4c1.8-2.1,4.3-3.1,7.4-3.1c3.3,0,5.9,1,7.8,3c1.8,2.1,2.7,5,2.7,8.6c0,0.2,0,0.4,0,0.6
	s0,0.3,0,0.3c0,0.3,0,0.5-0.1,0.6h-14.5c0.1,1.8,0.5,3,1.2,3.9s1.8,1.4,3.3,1.4c0.9,0,1.8-0.2,2.4-0.6c0.2-0.1,0.3-0.1,0.5-0.3
	s0.3-0.3,0.5-0.5c0.1-0.2,0.3-0.4,0.7-0.7C166.5,35.3,167,35.2,167.7,35.2z M141.7,42.1h-5.9L128,19.7h6.2l4.4,15.7l3.9-13.6
	c0.5-1.4,1.4-2,2.7-2h4.4L141.7,42.1z M113.3,42.1V31.2c0-2.2,0.3-4,1-5.5s1.5-2.7,2.6-3.5c1-0.8,2.3-1.4,3.7-1.8
	c1.4-0.4,2.9-0.6,4.4-0.6c0.1,0,0.3,0,0.4,0c0.2,0,0.3,0,0.4,0v5.9h-2c-1.6,0-2.8,0.4-3.6,1.2c-0.8,0.8-1.2,2-1.2,3.7v11.5
	L113.3,42.1L113.3,42.1z M96.3,28.6h8.6c-0.1-1.5-0.5-2.6-1.2-3.3c-0.7-0.8-1.8-1.2-3.1-1.2c-1.2,0-2.2,0.4-3,1.2
	C96.7,26.1,96.3,27.2,96.3,28.6z M106.3,35.2h4.2c-0.6,2.4-1.8,4.1-3.5,5.4c-1.8,1.3-3.9,2-6.5,2c-3.2,0-5.7-1-7.4-3.1
	c-1.8-2-2.7-4.9-2.7-8.6c0-3.6,0.8-6.4,2.6-8.4c1.8-2.1,4.2-3.1,7.4-3.1c3.3,0,5.9,1,7.8,3c1.8,2.1,2.7,5,2.7,8.6c0,0.2,0,0.4,0,0.6
	s0,0.3,0,0.3c0,0.3,0,0.5-0.1,0.6H96.3c0.1,1.8,0.5,3,1.2,3.9s1.8,1.4,3.3,1.4c0.9,0,1.8-0.2,2.4-0.6c0.2-0.1,0.3-0.1,0.5-0.3
	c0.1-0.1,0.3-0.3,0.5-0.5c0.1-0.2,0.3-0.4,0.7-0.7C105.1,35.3,105.7,35.2,106.3,35.2z M64.6,33.1h5.9c0.3,1.7,0.8,2.9,2,3.5
	c1.1,0.8,2.7,1.2,4.6,1.2c1.8,0,3.1-0.3,3.9-0.9c0.9-0.6,1.4-1.5,1.4-2.7c0-1.8-2.5-3.3-7.6-4.4l-0.2-0.1c0,0-0.2-0.1-0.7-0.2
	c-2.9-0.6-4.8-1.2-5.7-1.9c-1.1-0.6-1.9-1.5-2.4-2.7c-0.6-1-0.8-2.3-0.8-3.9c0-2.7,0.9-4.9,2.9-6.5c1.9-1.5,4.6-2.3,8.3-2.3
	c3.4,0,6,0.8,7.9,2.4c1.9,1.8,2.9,4,3,6.8h-3.3c-1.3,0-2.2-0.6-2.7-1.8c-0.3-0.6-0.7-1-1.2-1.4c-1-0.7-2.4-1.1-4.1-1.1
	s-2.9,0.3-3.6,0.9c-0.8,0.6-1.2,1.5-1.2,2.6c0,1.5,1.6,2.6,4.9,3.3c1,0.3,1.6,0.5,2.1,0.5c1,0.3,1.9,0.6,2.6,0.8
	c0.8,0.2,1.4,0.3,1.8,0.5c0.8,0.3,1.6,0.7,2.4,1c1.1,0.7,2,1.6,2.6,2.6c0.6,1.2,0.9,2.5,0.9,3.9c0,3-1,5.4-3,7.1
	c-2,1.6-4.8,2.4-8.6,2.4c-3.8,0-6.7-0.8-8.6-2.4C65.9,38.7,64.8,36.3,64.6,33.1z"/>
<path class="st0" d="M365.6,41.2c-1.2,0.6-2.4,1-3.7,1.1s-2.5,0.2-3.5,0.2c-2,0-3.8-0.5-5.3-1.6s-2.3-2.9-2.3-5.4c0-2.4,0.7-4,2.1-5
	s3.1-1.7,5.2-2c0.3,0,0.7-0.1,1-0.1c0.4-0.1,0.8-0.1,1.4-0.2c2.5-0.3,3.7-1,3.7-2.2c0-0.8-0.5-1.4-1.3-1.6s-1.6-0.4-2.4-0.4
	s-1.5,0.1-2.1,0.3s-1,0.7-1.3,1.2h-5.6c0.2-1.8,1-3.1,2.4-4.2c1.5-1.3,3.7-2,6.5-2c3.1,0,5.5,0.5,7.1,1.6s2.4,2.7,2.4,4.7v7.6
	c0,2.2-0.4,4-1.2,5.2C367.6,39.7,366.7,40.6,365.6,41.2 M364.2,30.8c-0.8,0.4-1.9,0.7-3.3,1.1c-1.3,0.3-2,0.4-2,0.4
	c-1,0.3-1.8,0.7-2.2,1.1c-0.4,0.6-0.6,1.2-0.6,1.8c0,0.8,0.3,1.5,0.8,2s1.2,0.7,2.2,0.7c1.6,0,2.8-0.5,3.7-1.4
	c0.9-0.9,1.4-2.2,1.4-3.7V30.8L364.2,30.8z M342.1,13.2h3c0.8,0,1.4,0.3,2,0.8s0.8,1.2,0.8,2v1.8H342v-4.6
	C342,13.2,342.1,13.2,342.1,13.2z M342.1,19.7h3c0.8,0,1.4,0.3,2,0.8c0.6,0.6,0.8,1.2,0.8,2V42H342V19.7H342.1z M333,13.2h3
	c0.8,0,1.4,0.3,2,0.8s0.8,1.2,0.8,2v26.1H333V13.2z M326,41.2c-1.2,0.6-2.4,1-3.7,1.1s-2.5,0.2-3.5,0.2c-2,0-3.8-0.5-5.3-1.6
	s-2.3-2.9-2.3-5.4c0-2.4,0.7-4,2-5c1.4-1,3.1-1.7,5.2-2c0.3,0,0.6-0.1,1-0.1c0.4-0.1,0.8-0.1,1.3-0.2c2.5-0.3,3.7-1,3.7-2.2
	c0-0.8-0.5-1.4-1.3-1.6s-1.6-0.4-2.4-0.4s-1.5,0.1-2.1,0.3s-1,0.7-1.3,1.2h-5.6c0.2-1.8,1-3.1,2.4-4.2c1.5-1.3,3.7-2,6.5-2
	c3.1,0,5.5,0.5,7.1,1.6s2.4,2.7,2.4,4.7v7.6c0,2.2-0.4,4-1.2,5.2C328.1,39.7,327.2,40.6,326,41.2z M324.7,30.8
	c-0.8,0.4-1.9,0.7-3.3,1.1c-1.3,0.3-2,0.4-2,0.4c-1,0.3-1.8,0.7-2.2,1.1c-0.4,0.6-0.6,1.2-0.6,1.8c0,0.8,0.3,1.5,0.8,2
	s1.2,0.7,2.2,0.7c1.6,0,2.8-0.5,3.7-1.4c0.9-0.9,1.4-2.2,1.4-3.7V30.8L324.7,30.8z M297.1,42.1V31.2c0-2.2,0.3-4,1-5.5
	s1.5-2.7,2.6-3.5c1-0.8,2.3-1.4,3.7-1.8s2.9-0.6,4.4-0.6c0.1,0,0.3,0,0.4,0c0.2,0,0.3,0,0.4,0v5.9h-2c-1.6,0-2.8,0.4-3.6,1.2
	c-0.8,0.8-1.2,2-1.2,3.7v11.5L297.1,42.1L297.1,42.1z M295.1,42.1c-1.8,0.1-3.9,0.1-6-0.1c-2.2-0.2-3.2-1.6-3.2-4.1V13.2h3
	c0.7,0,1.4,0.3,2,0.8s0.8,1.2,0.8,2v3.8h3.5V21c0,0.8-0.3,1.5-0.8,2.1c-0.6,0.5-1.2,0.8-2,0.8h-0.7v12.4c0,1,0.5,1.4,1.7,1.4h1.8
	L295.1,42.1L295.1,42.1z M263,34.7h5.7c0.1,1.1,0.5,2,1.2,2.5c0.8,0.5,2,0.8,3.3,0.8c1,0,1.9-0.2,2.6-0.6c0.7-0.4,1-0.9,1-1.6
	c0-1-1.2-1.8-3.5-2.3c-1-0.1-1.8-0.3-2.3-0.5c-2.9-0.7-5-1.6-5.9-2.6c-1.1-1-1.7-2.4-1.7-4c0-2.1,0.8-3.9,2.4-5.3
	c1.7-1.3,3.9-2,6.5-2c2.9,0,5.2,0.7,7,2c1.6,1.4,2.5,3.2,2.6,5.4h-3.6c-1,0-1.9-0.5-2.4-1.4c-0.2-0.2-0.5-0.5-0.7-0.7
	c-0.7-0.5-1.6-0.7-2.7-0.7s-2,0.1-2.5,0.5c-0.5,0.3-0.8,0.8-0.8,1.5c0,0.9,1.4,1.6,4.4,2.3c0.3,0.1,0.7,0.2,0.8,0.3
	c0.3,0.1,0.5,0.1,0.7,0.1c2.9,0.7,4.8,1.6,5.9,2.5c1,1,1.6,2.4,1.6,4c0,2.5-0.9,4.4-2.7,5.7c-1.7,1.2-4.2,1.8-7.6,1.8
	c-3.2,0-5.6-0.7-7.1-2c-1.6-1.3-2.4-3.1-2.4-5.6L263,34.7L263,34.7z M260.1,19.7v13.1c0,4-1,6.6-3.1,7.8s-4.3,1.8-6.8,1.8
	c-2.4-0.1-4.6-0.8-6.6-2s-3-3.8-3-7.6V19.7h5.9v14.2c0,1.4,0.4,2.3,1.2,2.9c0.8,0.6,1.7,0.9,2.7,0.9s1.9-0.3,2.7-0.9
	c0.8-0.7,1.2-1.6,1.2-2.9V22.6c0-0.8,0.3-1.4,0.8-2s1.2-0.8,2.1-0.8h2.9L260.1,19.7L260.1,19.7z M224.8,19l-4,12.2h8L224.8,19z
	 M223.5,13.2h4.7l10.4,28.9h-6.3l-2-5.9h-11.2l-1.8,5.9H211l9.5-26.9C221.2,13.9,222.1,13.2,223.5,13.2z"/>
<g>
	<path class="st0" d="M381.7,17.1c0,2.7-2.1,4.9-4.9,4.9c-2.7,0-4.9-2.1-4.9-4.9c0-2.7,2.2-4.8,4.9-4.8
		C379.6,12.3,381.7,14.5,381.7,17.1z M373.1,17.1c0,2.1,1.6,3.8,3.7,3.8s3.7-1.7,3.7-3.8s-1.5-3.9-3.7-3.9
		C374.7,13.3,373.1,15,373.1,17.1z M376,19.6h-1.1v-4.8c0.4-0.1,1.1-0.1,1.8-0.1c0.9,0,1.3,0.1,1.7,0.4c0.3,0.2,0.5,0.6,0.5,1.1
		c0,0.5-0.4,0.9-1,1.1v0.1c0.5,0.2,0.7,0.5,0.9,1.2c0.1,0.7,0.2,1,0.4,1.2H378c-0.1-0.2-0.2-0.6-0.4-1.2c-0.1-0.5-0.4-0.8-1-0.8H376
		V19.6z M376.1,16.9h0.5c0.6,0,1.1-0.2,1.1-0.7c0-0.4-0.3-0.7-1-0.7c-0.3,0-0.5,0-0.6,0.1V16.9z"/>
</g>
</svg>
