<?xml version="1.0" encoding="utf-8"?>
<!-- Generator: Adobe Illustrator 25.4.0, SVG Export Plug-In . SVG Version: 6.00 Build 0)  -->
<svg version="1.1" id="图层_1" xmlns="http://www.w3.org/2000/svg" xmlns:xlink="http://www.w3.org/1999/xlink" x="0px" y="0px"
	 viewBox="0 0 521.6 187.1" style="enable-background:new 0 0 521.6 187.1;" xml:space="preserve">
<g>
	<path d="M491.4,25L491.4,25c0-4.8,3.8-8.7,8.6-8.7c4.8,0,8.6,3.9,8.6,8.6v0c0,4.7-3.8,8.7-8.6,8.7C495.2,33.6,491.4,29.7,491.4,25
		 M507,24.9L507,24.9c0-3.8-3-7-6.9-7c-3.9,0-7,3.2-7,7V25c0,3.8,3,7,7,7C503.9,32,507,28.8,507,24.9"/>
	<path d="M496.7,21.4c0-0.5,0.4-0.9,0.9-0.9h2.9c1.1,0,1.9,0.3,2.4,0.8c0.5,0.5,0.7,1.1,0.7,1.9v0c0,1.3-0.6,2.1-1.7,2.5l1.3,1.5
		c0.2,0.2,0.3,0.4,0.3,0.7c0,0.5-0.4,0.8-0.9,0.8c-0.4,0-0.7-0.2-0.9-0.5l-1.8-2.3h-1.5v1.8c0,0.5-0.4,0.9-0.9,0.9
		c-0.5,0-0.9-0.4-0.9-0.9V21.4z M500.4,24.5c0.9,0,1.4-0.5,1.4-1.2v0c0-0.8-0.6-1.2-1.4-1.2h-1.8v2.4H500.4z"/>
	<path d="M225.2,83.6l-21.5-59.9c-0.3-0.8-0.7-1.9-0.7-2.9c0-2.6,2.2-5.1,5.4-5.1c2.7,0,4.5,1.8,5.3,4.4l17.8,51.6l18-51.7
		c0.8-2.5,2.5-4.2,5.2-4.2h0.5c2.9,0,4.7,1.8,5.5,4.2l17.8,51.7l18.1-51.9c0.7-2.2,2.2-4.1,5.1-4.1c3,0,5.2,2.3,5.2,4.9
		c0,1-0.4,2.1-0.7,2.9l-21.6,60c-1.1,3.1-3.3,4.8-5.8,4.8h-0.4c-2.7,0-4.8-1.7-5.8-4.8L255,32.7l-17.8,50.9c-0.9,3.1-3,4.8-5.7,4.8
		h-0.3C228.5,88.4,226.3,86.7,225.2,83.6"/>
	<path d="M382,21c0-2.9,2.3-5.4,5.2-5.4c3,0,5.4,2.3,5.4,5.4v12.1c5.2-11.8,16.8-17.4,24.4-17.4c3.2,0,5.2,2.3,5.2,5.4
		c0,2.9-1.9,4.9-4.6,5.3c-13.8,1.6-25,11.9-25,32.4v24c0,2.9-2.2,5.4-5.2,5.4c-3,0-5.4-2.4-5.4-5.4V21"/>
	<path d="M456.1,88.9c-19.1,0-34.7-14.8-34.7-36.5v-0.3c0-20.2,14.1-36.5,33.3-36.5c20.6,0,32.2,17,32.2,35.6c0,2.9-2.3,4.9-4.8,4.9
		h-50.3c1.5,15.2,12.1,23.8,24.5,23.8c8.6,0,14.9-3.4,20-8.1c0.8-0.7,1.7-1.2,3-1.2c2.5,0,4.6,2,4.6,4.5c0,1.2-0.5,2.4-1.6,3.4
		C475.7,84.7,467.9,88.9,456.1,88.9 M476.7,48.3c-1.1-12.8-8.3-23.9-22.2-23.9c-12.1,0-21.2,10.2-22.6,23.9H476.7z"/>
	<path d="M307.1,67v-0.3c0-14.9,12.3-22.9,30.2-22.9c9,0,15.5,1.2,21.8,3v-2.5c0-12.7-7.8-19.3-21.1-19.3c-7.1,0-11.2,0.9-16.4,3.2
		c-0.7,0.3-1.4,0.4-1.9,0.4c-2.5,0-4.7-2-4.7-4.5c0-2.2,0.9-3.5,2.9-4.4c6.9-3,12.2-4,21.2-4c10,0,17.6,2.6,22.8,7.8
		c4.8,4.8,7.3,11.6,7.3,20.7v39c0,3-2.2,5.2-5.1,5.2c-3,0-5-2.2-5-4.9v-6.7c-4.9,6.4-13.1,12.2-25.6,12.2
		C320.4,89,307.1,81.5,307.1,67 M359.2,61.5v-6.8c-5.2-1.5-12.2-3-20.8-3c-13.3,0-20.7,5.7-20.7,14.6v0.3c0,8.9,8.2,14.1,17.8,14.1
		C348.5,80.6,359.2,72.7,359.2,61.5"/>
	<path d="M33.6,20.2c-2.3-5.1-8-7.4-13.4-5c-5.4,2.4-7.3,8.3-4.9,13.4l22.4,48.8C41.3,85.1,45,89.1,52,89.1
		c7.5,0,10.7-4.4,14.3-11.6c0,0,19.6-42.6,19.8-43.1c0.2-0.5,0.8-1.9,2.8-1.8c1.7,0,3.1,1.4,3.1,3.2v41.7c0,6.4,3.6,11.7,10.4,11.7
		s10.6-5.3,10.6-11.7V43.3c0-6.6,4.7-10.9,11.1-10.9c6.4,0,10.7,4.4,10.7,10.9v34.1c0,6.4,3.6,11.7,10.4,11.7
		c6.8,0,10.6-5.3,10.6-11.7V43.3c0-6.6,4.7-10.9,11.1-10.9c6.4,0,10.7,4.4,10.7,10.9v34.1c0,6.4,3.6,11.7,10.4,11.7
		c6.9,0,10.6-5.3,10.6-11.7V38.6c0-14.3-11.5-24.3-25.3-24.3c-13.8,0-22.4,9.5-22.4,9.5c-4.6-6-10.9-9.5-21.6-9.5
		c-11.3,0-21.2,9.5-21.2,9.5c-4.6-6-12.4-9.5-18.9-9.5c-10,0-18,4.4-22.8,15.5L52,63.6L33.6,20.2"/>
	<path d="M257.8,124.7h17.5c5.5,0,10.1,1.7,13,4.6c2.6,2.6,4,6.2,4,10.7v0.3c0,7.5-4.2,12.1-10,14.2l11.4,18.8h-9.3l-10.3-17.2
		c-0.1,0.1-0.4,0.1-0.5,0.1h-7.8v17.1h-8V124.7z M274.5,148.8c6.2,0,9.7-3.3,9.7-8.4v-0.1c0-5.5-3.5-8.3-9.5-8.3h-8.8v16.8H274.5z"
		/>
	<polygon points="307.1,124.7 337.6,124.7 337.6,131.9 315.1,131.9 315.1,145.1 335.1,145.1 335.1,152.3 315.1,152.3 315.1,165.9 
		338,165.9 338,173.1 307.1,173.1 	"/>
	<path d="M366.7,124.4h7.8l17.8,48.8h-8.4l-4-11.4H361l-4,11.4h-8.1L366.7,124.4z M377.4,154.6l-6.9-19.5l-6.9,19.5H377.4z"/>
	<path d="M405.3,124.7h14.8c13.9,0,23,9.7,23,23.9v0.6c0,14.2-9.1,24-23,24h-14.8V124.7z M413.3,131.9v33.9h6.7
		c8.9,0,14.8-6.3,14.8-16.7v-0.4c0-10.5-5.9-16.8-14.8-16.8H413.3z"/>
	<polygon points="466.3,153.8 449.9,124.7 459.1,124.7 470.3,145.6 481.6,124.7 490.6,124.7 474.3,153.7 474.3,173.1 466.3,173.1 	
		"/>
</g>
</svg>
