<?xml version="1.0" encoding="utf-8"?>
<!-- Generator: Adobe Illustrator 25.4.0, SVG Export Plug-In . SVG Version: 6.00 Build 0)  -->
<svg version="1.1" id="Logo" xmlns="http://www.w3.org/2000/svg" xmlns:xlink="http://www.w3.org/1999/xlink" x="0px" y="0px"
	 viewBox="0 0 344.6 147.2" style="enable-background:new 0 0 344.6 147.2;" xml:space="preserve">
<style type="text/css">
	.st0{fill:#FFFFFF;}
	.st1{fill:#DBDCDD;}
	.st2{fill:url(#cloud_00000092419937277343575420000003550576962425647774_);}
	.st3{fill:#349BD9;}
	.st4{fill:#040405;}
</style>
<g>
	<g id="bkg">
		<rect x="0.5" y="0.5" class="st0" width="343.6" height="146.2"/>
		<path class="st1" d="M343.6,1v145.2H1V1H343.6 M344.6,0H0v147.2h344.6V0L344.6,0z"/>
	</g>
	
		<linearGradient id="cloud_00000175310247148593241050000006156164524469435575_" gradientUnits="userSpaceOnUse" x1="192.6598" y1="49.2928" x2="328.2463" y2="95.979">
		<stop  offset="6.771259e-02" style="stop-color:#83BA51"/>
		<stop  offset="0.9442" style="stop-color:#349BD9"/>
	</linearGradient>
	<path id="cloud" style="fill:url(#cloud_00000175310247148593241050000006156164524469435575_);" d="M212.1,46.3l36.9-36.9l9.9,0
		l-36.6,36.6c-1.1-0.1-5.5-0.6-9.1,0.1C212.7,46.2,212.4,46.3,212.1,46.3z M305.7,54.3c-0.6-4.4-2.1-8.5-4.2-12.2l33-32.7h-10
		l-27.1,26.9c-6.6-7.6-16.3-12.4-26.9-12.4C251,24,235,39.9,235,59.5c0,2.8,0.3,5.4,0.6,7.9l4.1-4.2c0.7-0.8,1.5-1.5,2.2-2.3
		c0-0.5,0-0.9,0-1.4c0-15.7,12.8-28.6,28.6-28.6c13.1,0,24.3,8.9,27.6,21.2c-1.4-0.2-2.8-0.4-4.2-0.5c-16.3-1.3-25,8-27.9,11
		l-0.1,0.1c-3.9,4.2-26.3,27.1-32.5,33.4c2.2,0,6.1,0,9.8,0c8.9-9.2,24.4-25.1,27.7-28.6l0.1-0.1c2.5-2.7,9.3-9.9,22.3-8.8
		c16.7,1.3,28.8,13.3,28.8,28.6c0,15.7-12.8,28.6-28.6,28.6l-76.6,0.4c-15.7,0-28.6-12.8-28.6-28.6c0-15.7,12.8-28.6,28.6-28.6
		c3.3,0,6.4,0.4,9.2,1.1c0.4,0.1,1.4,0.5,1.4,0.5c-0.2-2.5,0.1-5.4,0.5-7.2c0,0-0.1,0-0.1,0c-3.3-0.9-7-1.3-11-1.3
		c-19.6,0-35.6,16-35.6,35.6c0,16.4,11.2,30.3,26.4,34.3L192,137.8l9.6-0.1l14.9-14.6c0.2,0,0.3,0,0.5,0l76.6-0.4
		c19.6,0,35.6-16,35.6-35.6C329.2,72.4,319.7,59.7,305.7,54.3z"/>
	<g id="text">
		<path class="st3" d="M26.4,102.2h4.5l1.3,13.4l8.5-13.4h4.8l-12.9,19.4h-3.7L26.4,102.2z M49.1,102.2h14.4l-1,3.8H52.3l-1,3.9h8.9
			l-1,3.7h-8.9l-1.1,4.1h10.3l-1,3.8H44L49.1,102.2z M72.6,115.3h-3.2l-1.6,6.2h-4.2l5.2-19.2h7c2.9,0,4.8,0.6,6.1,1.9
			c1,1,1.5,2.3,1.5,3.9c0,1.8-0.6,3.4-1.8,4.6c-0.7,0.7-2,1.8-4.4,2.3l3.3,6.6h-4.8L72.6,115.3z M74.2,111.5c1.6,0,3-0.4,3.9-1.2
			c0.5-0.5,0.8-1.2,0.8-2c0-0.7-0.2-1.1-0.6-1.5c-0.5-0.5-1.5-0.8-2.8-0.8h-3.5l-1.5,5.5H74.2z M89.9,102.2h4.2L89,121.4h-4.2
			L89.9,102.2z M100,102.2h14.6l-1,3.8h-10.4l-1.1,4.1h9.2l-1,3.8h-9.2l-2,7.4h-4.2L100,102.2z M119.4,102.2h4.2l-5.2,19.2h-4.2
			L119.4,102.2z M129.5,102.2h14.4l-1,3.8h-10.2l-1,3.9h8.9l-1,3.7h-8.9l-1.1,4.1h10.3l-1,3.8h-14.5L129.5,102.2z M149,102.2h5.6
			c3.7,0,6.1,1,7.5,2.5c1.4,1.4,2.1,3.3,2.1,5.6c0,2.9-1.1,5.5-3.2,7.6c-2.3,2.3-5.6,3.5-10.1,3.5h-7.1L149,102.2z M154.3,106h-2.1
			l-3.1,11.6h2.4c2.6,0,4.9-0.8,6.4-2.3c1.2-1.2,1.9-2.9,1.9-4.8c0-1.3-0.4-2.3-1.1-3C157.9,106.6,156.5,106,154.3,106z"/>
		<path class="st4" d="M86,46.5l-6.5-18c-0.1-0.2-0.2-0.6-0.2-0.9c0-0.8,0.7-1.5,1.6-1.5c0.8,0,1.4,0.5,1.6,1.3L87.9,43l5.4-15.6
			c0.2-0.7,0.7-1.3,1.6-1.3h0.2c0.9,0,1.4,0.5,1.7,1.3l5.4,15.6l5.4-15.6c0.2-0.7,0.7-1.2,1.5-1.2c0.9,0,1.6,0.7,1.6,1.5
			c0,0.3-0.1,0.6-0.2,0.9l-6.5,18.1c-0.3,0.9-1,1.4-1.7,1.4H102c-0.8,0-1.4-0.5-1.7-1.4L95,31.2l-5.4,15.3c-0.3,0.9-0.9,1.4-1.7,1.4
			h-0.1C87,48,86.4,47.5,86,46.5 M133.2,27.7v18.6c0,0.9,0.7,1.6,1.6,1.6c0.9,0,1.6-0.7,1.6-1.6v-7.2c0-6.2,3.4-9.3,7.5-9.8
			c0.8-0.1,1.4-0.7,1.4-1.6c0-0.9-0.6-1.6-1.6-1.6c-2.3,0-5.8,1.7-7.4,5.2v-3.7c0-0.9-0.7-1.6-1.6-1.6
			C133.9,26.1,133.2,26.8,133.2,27.7 M155.5,48.2c3.6,0,5.9-1.3,7.9-3.2c0.3-0.3,0.5-0.7,0.5-1c0-0.7-0.6-1.4-1.4-1.4
			c-0.4,0-0.7,0.2-0.9,0.4c-1.5,1.4-3.4,2.5-6,2.5c-3.7,0-6.9-2.6-7.4-7.2h15.1c0.8,0,1.5-0.6,1.5-1.5c0-5.6-3.5-10.7-9.7-10.7
			c-5.8,0-10,4.9-10,11v0.1C145.1,43.7,149.8,48.2,155.5,48.2 M148.3,35.9c0.4-4.1,3.2-7.2,6.8-7.2c4.2,0,6.4,3.4,6.7,7.2H148.3z
			 M110.7,41.5c0,4.4,4,6.6,8,6.6c3.7,0,6.2-1.7,7.7-3.7v2c0,0.8,0.6,1.5,1.5,1.5c0.9,0,1.5-0.7,1.5-1.6V34.7c0-2.7-0.7-4.8-2.2-6.2
			c-1.6-1.6-3.9-2.3-6.9-2.3c-2.7,0-4.3,0.3-6.4,1.2c-0.6,0.3-0.9,0.7-0.9,1.3c0,0.7,0.7,1.4,1.4,1.4c0.2,0,0.4,0,0.6-0.1
			c1.6-0.7,2.8-1,5-1c4,0,6.3,2,6.3,5.8v0.7c-1.9-0.5-3.8-0.9-6.6-0.9C114.4,34.6,110.7,37,110.7,41.5L110.7,41.5 M119.2,45.7
			c-2.9,0-5.4-1.6-5.4-4.2v-0.1c0-2.7,2.2-4.4,6.2-4.4c2.6,0,4.7,0.5,6.3,0.9v2.1C126.4,43.3,123.2,45.7,119.2,45.7z M28.3,27.5
			c-0.7-1.5-2.4-2.2-4-1.5c-1.6,0.7-2.2,2.5-1.5,4l6.8,14.7c1.1,2.3,2.2,3.5,4.3,3.5c2.3,0,3.2-1.3,4.3-3.5c0,0,5.9-12.8,6-13
			c0.1-0.1,0.2-0.6,0.8-0.6c0.5,0,0.9,0.4,0.9,1v12.6c0,1.9,1.1,3.5,3.1,3.5c2.1,0,3.2-1.6,3.2-3.5V34.4c0-2,1.4-3.3,3.4-3.3
			c1.9,0,3.2,1.3,3.2,3.3v10.3c0,1.9,1.1,3.5,3.1,3.5c2.1,0,3.2-1.6,3.2-3.5V34.4c0-2,1.4-3.3,3.4-3.3c1.9,0,3.2,1.3,3.2,3.3v10.3
			c0,1.9,1.1,3.5,3.1,3.5c2.1,0,3.2-1.6,3.2-3.5V33c0-4.3-3.5-7.3-7.6-7.3c-4.1,0-6.8,2.9-6.8,2.9c-1.4-1.8-3.3-2.9-6.5-2.9
			c-3.4,0-6.4,2.9-6.4,2.9c-1.4-1.8-3.7-2.9-5.7-2.9c-3,0-5.4,1.3-6.9,4.7l-4.3,10.2L28.3,27.5 M165,28.9c0,1.4,1.1,2.6,2.6,2.6
			c1.4,0,2.6-1.2,2.6-2.6v0c0-1.4-1.1-2.6-2.6-2.6C166.1,26.3,165,27.5,165,28.9L165,28.9 M167.6,31c-1.2,0-2.1-1-2.1-2.1v0
			c0-1.1,0.9-2.1,2.1-2.1c1.2,0,2.1,1,2.1,2.1v0C169.6,30,168.7,31,167.6,31z M166.6,29.8c0,0.2,0.1,0.3,0.3,0.3
			c0.2,0,0.3-0.1,0.3-0.3v-0.5h0.4l0.5,0.7c0.1,0.1,0.1,0.1,0.3,0.1c0.1,0,0.3-0.1,0.3-0.3c0-0.1,0-0.1-0.1-0.2l-0.4-0.5
			c0.3-0.1,0.5-0.4,0.5-0.8v0c0-0.2-0.1-0.4-0.2-0.6c-0.2-0.2-0.4-0.3-0.7-0.3h-0.9c-0.2,0-0.3,0.1-0.3,0.3V29.8z M167.1,28.7V28
			h0.5c0.3,0,0.4,0.1,0.4,0.4v0c0,0.2-0.2,0.4-0.4,0.4H167.1z M36.5,89.8c5.3,0,8.5-1.9,11.4-5l-3.2-3.2c-2.4,2.3-4.6,3.6-8.1,3.6
			c-5.4,0-9.3-4.5-9.3-10v-0.1c0-5.5,3.9-9.9,9.3-9.9c3.2,0,5.6,1.4,7.9,3.5l3.2-3.7c-2.7-2.6-5.8-4.4-11-4.4
			c-8.5,0-14.5,6.6-14.5,14.6v0.1C22.2,83.4,28.3,89.8,36.5,89.8z M53.1,89.3h19.8v-4.5H58.1V61.1h-5V89.3z M89.9,89.8
			c8.7,0,14.8-6.6,14.8-14.6v-0.1c0-7.9-6-14.5-14.7-14.5c-8.7,0-14.8,6.6-14.8,14.6v0.1C75.2,83.2,81.3,89.8,89.9,89.8z M90,85.2
			c-5.6,0-9.6-4.5-9.6-10v-0.1c0-5.5,3.9-9.9,9.5-9.9s9.6,4.5,9.6,10v0.1C99.5,80.8,95.6,85.2,90,85.2z M122.2,89.8
			c7.4,0,12.1-4.2,12.1-12.6v-16h-5v16.2c0,5.2-2.7,7.8-7.1,7.8c-4.4,0-7.1-2.8-7.1-8v-16h-5v16.2C110.2,85.5,114.9,89.8,122.2,89.8
			z M141.2,89.3h10.5c8.9,0,15-6.2,15-14.1v-0.1c0-7.9-6.1-14-15-14h-10.5V89.3z M151.7,65.6c5.9,0,9.8,4.1,9.8,9.6v0.1
			c0,5.5-3.9,9.5-9.8,9.5h-5.6V65.6H151.7z M165.6,65.5h0.6v-2.7h1v-0.5h-2.7v0.5h1V65.5z M168.1,65.5h0.6v-2.3l1,1.5h0l1-1.5v2.3
			h0.6v-3.3h-0.6l-1,1.5l-1-1.5h-0.6V65.5z"/>
	</g>
</g>
</svg>
